%TF.GenerationSoftware,KiCad,Pcbnew,(6.0.8-1)-1*%
%TF.CreationDate,2024-01-05T14:00:27-06:00*%
%TF.ProjectId,Vishay 357 Pot Amplifier,56697368-6179-4203-9335-3720506f7420,rev?*%
%TF.SameCoordinates,Original*%
%TF.FileFunction,Legend,Top*%
%TF.FilePolarity,Positive*%
%FSLAX46Y46*%
G04 Gerber Fmt 4.6, Leading zero omitted, Abs format (unit mm)*
G04 Created by KiCad (PCBNEW (6.0.8-1)-1) date 2024-01-05 14:00:27*
%MOMM*%
%LPD*%
G01*
G04 APERTURE LIST*
%ADD10C,0.254000*%
%ADD11C,0.150000*%
%ADD12C,0.200000*%
%ADD13C,0.120000*%
G04 APERTURE END LIST*
D10*
%TO.C,U1*%
X142354523Y-105082219D02*
X143382619Y-105082219D01*
X143503571Y-105021742D01*
X143564047Y-104961266D01*
X143624523Y-104840314D01*
X143624523Y-104598409D01*
X143564047Y-104477457D01*
X143503571Y-104416980D01*
X143382619Y-104356504D01*
X142354523Y-104356504D01*
X143624523Y-103086504D02*
X143624523Y-103812219D01*
X143624523Y-103449361D02*
X142354523Y-103449361D01*
X142535952Y-103570314D01*
X142656904Y-103691266D01*
X142717380Y-103812219D01*
D11*
%TO.C,J2*%
X149755266Y-97528580D02*
X149755266Y-98242866D01*
X149707647Y-98385723D01*
X149612409Y-98480961D01*
X149469552Y-98528580D01*
X149374314Y-98528580D01*
X150183838Y-97623819D02*
X150231457Y-97576200D01*
X150326695Y-97528580D01*
X150564790Y-97528580D01*
X150660028Y-97576200D01*
X150707647Y-97623819D01*
X150755266Y-97719057D01*
X150755266Y-97814295D01*
X150707647Y-97957152D01*
X150136219Y-98528580D01*
X150755266Y-98528580D01*
%TO.C,C2*%
X147333333Y-111257142D02*
X147285714Y-111304761D01*
X147142857Y-111352380D01*
X147047619Y-111352380D01*
X146904761Y-111304761D01*
X146809523Y-111209523D01*
X146761904Y-111114285D01*
X146714285Y-110923809D01*
X146714285Y-110780952D01*
X146761904Y-110590476D01*
X146809523Y-110495238D01*
X146904761Y-110400000D01*
X147047619Y-110352380D01*
X147142857Y-110352380D01*
X147285714Y-110400000D01*
X147333333Y-110447619D01*
X147714285Y-110447619D02*
X147761904Y-110400000D01*
X147857142Y-110352380D01*
X148095238Y-110352380D01*
X148190476Y-110400000D01*
X148238095Y-110447619D01*
X148285714Y-110542857D01*
X148285714Y-110638095D01*
X148238095Y-110780952D01*
X147666666Y-111352380D01*
X148285714Y-111352380D01*
%TO.C,C1*%
X144633333Y-112457142D02*
X144585714Y-112504761D01*
X144442857Y-112552380D01*
X144347619Y-112552380D01*
X144204761Y-112504761D01*
X144109523Y-112409523D01*
X144061904Y-112314285D01*
X144014285Y-112123809D01*
X144014285Y-111980952D01*
X144061904Y-111790476D01*
X144109523Y-111695238D01*
X144204761Y-111600000D01*
X144347619Y-111552380D01*
X144442857Y-111552380D01*
X144585714Y-111600000D01*
X144633333Y-111647619D01*
X145585714Y-112552380D02*
X145014285Y-112552380D01*
X145300000Y-112552380D02*
X145300000Y-111552380D01*
X145204761Y-111695238D01*
X145109523Y-111790476D01*
X145014285Y-111838095D01*
%TO.C,J1*%
X133064397Y-106576525D02*
X133331973Y-107238799D01*
X133341336Y-107389092D01*
X133288710Y-107513072D01*
X133174093Y-107610739D01*
X133085790Y-107646416D01*
X134366187Y-107129102D02*
X133836368Y-107343163D01*
X134101277Y-107236133D02*
X133726671Y-106308949D01*
X133691883Y-106477080D01*
X133639256Y-106601060D01*
X133568791Y-106680889D01*
D12*
%TO.C,U1*%
X147550000Y-104464600D02*
X144550000Y-104464600D01*
X144550000Y-103764600D02*
X147550000Y-103764600D01*
X144550000Y-104464600D02*
X144550000Y-103764600D01*
X147550000Y-103764600D02*
X147550000Y-104464600D01*
X147550000Y-102214600D02*
X147550000Y-103414600D01*
D13*
%TO.C,J2*%
X148758600Y-106816200D02*
X151418600Y-106816200D01*
X148758600Y-100406200D02*
X148758600Y-99076200D01*
X148758600Y-101676200D02*
X148758600Y-106816200D01*
X148758600Y-101676200D02*
X151418600Y-101676200D01*
X148758600Y-99076200D02*
X150088600Y-99076200D01*
X151418600Y-101676200D02*
X151418600Y-106816200D01*
%TO.C,C2*%
X146788748Y-109910000D02*
X148211252Y-109910000D01*
X146788748Y-108090000D02*
X148211252Y-108090000D01*
%TO.C,C1*%
X142211252Y-111610000D02*
X140788748Y-111610000D01*
X142211252Y-109790000D02*
X140788748Y-109790000D01*
%TO.C,J1*%
X134214555Y-105212235D02*
X136625233Y-104238258D01*
X136140033Y-109977960D02*
X140961389Y-108030006D01*
X133240578Y-102801557D02*
X134473732Y-102303330D01*
X133738804Y-104034712D02*
X133240578Y-102801557D01*
X138061934Y-100853603D02*
X140961389Y-108030006D01*
X136625233Y-104238258D02*
X135651256Y-101827580D01*
X134214555Y-105212235D02*
X136140033Y-109977960D01*
X135651256Y-101827580D02*
X138061934Y-100853603D01*
%TD*%
M02*
