%TF.GenerationSoftware,KiCad,Pcbnew,(6.0.8-1)-1*%
%TF.CreationDate,2024-01-05T14:00:35-06:00*%
%TF.ProjectId,Vishay 357 Pot Amplifier,56697368-6179-4203-9335-3720506f7420,rev?*%
%TF.SameCoordinates,Original*%
%TF.FileFunction,Drillmap*%
%TF.FilePolarity,Positive*%
%FSLAX45Y45*%
G04 Gerber Fmt 4.5, Leading zero omitted, Abs format (unit mm)*
G04 Created by KiCad (PCBNEW (6.0.8-1)-1) date 2024-01-05 14:00:35*
%MOMM*%
%LPD*%
G01*
G04 APERTURE LIST*
%ADD10C,0.100000*%
%ADD11C,0.200000*%
%ADD12C,0.040000*%
%ADD13C,0.177000*%
G04 APERTURE END LIST*
D10*
X15407660Y-10314940D02*
G75*
G03*
X15407660Y-10314940I-1110000J0D01*
G01*
D11*
D12*
X14562450Y-10390000D02*
X14602450Y-10430000D01*
X14602450Y-10390000D02*
X14562450Y-10430000D01*
X14680000Y-10390000D02*
X14720000Y-10430000D01*
X14720000Y-10390000D02*
X14680000Y-10430000D01*
X15040000Y-10820000D02*
X15080000Y-10860000D01*
X15080000Y-10820000D02*
X15040000Y-10860000D01*
D10*
X13547196Y-10353649D02*
G75*
G03*
X13547196Y-10353649I-50000J0D01*
G01*
X13642346Y-10589153D02*
G75*
G03*
X13642346Y-10589153I-50000J0D01*
G01*
X13737496Y-10824658D02*
G75*
G03*
X13737496Y-10824658I-50000J0D01*
G01*
X13782701Y-10258498D02*
G75*
G03*
X13782701Y-10258498I-50000J0D01*
G01*
X13877851Y-10494003D02*
G75*
G03*
X13877851Y-10494003I-50000J0D01*
G01*
X13973001Y-10729508D02*
G75*
G03*
X13973001Y-10729508I-50000J0D01*
G01*
X15058860Y-10040620D02*
G75*
G03*
X15058860Y-10040620I-50000J0D01*
G01*
X15058860Y-10294620D02*
G75*
G03*
X15058860Y-10294620I-50000J0D01*
G01*
X15058860Y-10548620D02*
G75*
G03*
X15058860Y-10548620I-50000J0D01*
G01*
D13*
X13979460Y-9908240D02*
X13979460Y-10085240D01*
X13890960Y-9996740D02*
X14067960Y-9996740D01*
X14297660Y-10676440D02*
X14297660Y-10853440D01*
X14209160Y-10764940D02*
X14386160Y-10764940D01*
X14615860Y-9908240D02*
X14615860Y-10085240D01*
X14527360Y-9996740D02*
X14704360Y-9996740D01*
D11*
X13440279Y-11740416D02*
X13440279Y-11540416D01*
X13487898Y-11540416D01*
X13516469Y-11549940D01*
X13535517Y-11568988D01*
X13545041Y-11588035D01*
X13554565Y-11626130D01*
X13554565Y-11654702D01*
X13545041Y-11692797D01*
X13535517Y-11711845D01*
X13516469Y-11730892D01*
X13487898Y-11740416D01*
X13440279Y-11740416D01*
X13640279Y-11740416D02*
X13640279Y-11607083D01*
X13640279Y-11645178D02*
X13649803Y-11626130D01*
X13659327Y-11616607D01*
X13678374Y-11607083D01*
X13697422Y-11607083D01*
X13764088Y-11740416D02*
X13764088Y-11607083D01*
X13764088Y-11540416D02*
X13754565Y-11549940D01*
X13764088Y-11559464D01*
X13773612Y-11549940D01*
X13764088Y-11540416D01*
X13764088Y-11559464D01*
X13887898Y-11740416D02*
X13868850Y-11730892D01*
X13859327Y-11711845D01*
X13859327Y-11540416D01*
X13992660Y-11740416D02*
X13973612Y-11730892D01*
X13964088Y-11711845D01*
X13964088Y-11540416D01*
X14221231Y-11740416D02*
X14221231Y-11540416D01*
X14287898Y-11683273D01*
X14354565Y-11540416D01*
X14354565Y-11740416D01*
X14535517Y-11740416D02*
X14535517Y-11635654D01*
X14525993Y-11616607D01*
X14506946Y-11607083D01*
X14468850Y-11607083D01*
X14449803Y-11616607D01*
X14535517Y-11730892D02*
X14516469Y-11740416D01*
X14468850Y-11740416D01*
X14449803Y-11730892D01*
X14440279Y-11711845D01*
X14440279Y-11692797D01*
X14449803Y-11673749D01*
X14468850Y-11664226D01*
X14516469Y-11664226D01*
X14535517Y-11654702D01*
X14630755Y-11607083D02*
X14630755Y-11807083D01*
X14630755Y-11616607D02*
X14649803Y-11607083D01*
X14687898Y-11607083D01*
X14706946Y-11616607D01*
X14716469Y-11626130D01*
X14725993Y-11645178D01*
X14725993Y-11702321D01*
X14716469Y-11721368D01*
X14706946Y-11730892D01*
X14687898Y-11740416D01*
X14649803Y-11740416D01*
X14630755Y-11730892D01*
X14811708Y-11721368D02*
X14821231Y-11730892D01*
X14811708Y-11740416D01*
X14802184Y-11730892D01*
X14811708Y-11721368D01*
X14811708Y-11740416D01*
X14811708Y-11616607D02*
X14821231Y-11626130D01*
X14811708Y-11635654D01*
X14802184Y-11626130D01*
X14811708Y-11616607D01*
X14811708Y-11635654D01*
D12*
X13142660Y-12049940D02*
X13182660Y-12089940D01*
X13182660Y-12049940D02*
X13142660Y-12089940D01*
D11*
X13478374Y-11960416D02*
X13497422Y-11960416D01*
X13516469Y-11969940D01*
X13525993Y-11979464D01*
X13535517Y-11998511D01*
X13545041Y-12036607D01*
X13545041Y-12084226D01*
X13535517Y-12122321D01*
X13525993Y-12141368D01*
X13516469Y-12150892D01*
X13497422Y-12160416D01*
X13478374Y-12160416D01*
X13459327Y-12150892D01*
X13449803Y-12141368D01*
X13440279Y-12122321D01*
X13430755Y-12084226D01*
X13430755Y-12036607D01*
X13440279Y-11998511D01*
X13449803Y-11979464D01*
X13459327Y-11969940D01*
X13478374Y-11960416D01*
X13630755Y-12141368D02*
X13640279Y-12150892D01*
X13630755Y-12160416D01*
X13621231Y-12150892D01*
X13630755Y-12141368D01*
X13630755Y-12160416D01*
X13811708Y-12027083D02*
X13811708Y-12160416D01*
X13764088Y-11950892D02*
X13716469Y-12093749D01*
X13840279Y-12093749D01*
X13954565Y-11960416D02*
X13973612Y-11960416D01*
X13992660Y-11969940D01*
X14002184Y-11979464D01*
X14011708Y-11998511D01*
X14021231Y-12036607D01*
X14021231Y-12084226D01*
X14011708Y-12122321D01*
X14002184Y-12141368D01*
X13992660Y-12150892D01*
X13973612Y-12160416D01*
X13954565Y-12160416D01*
X13935517Y-12150892D01*
X13925993Y-12141368D01*
X13916469Y-12122321D01*
X13906946Y-12084226D01*
X13906946Y-12036607D01*
X13916469Y-11998511D01*
X13925993Y-11979464D01*
X13935517Y-11969940D01*
X13954565Y-11960416D01*
X14145041Y-11960416D02*
X14164088Y-11960416D01*
X14183136Y-11969940D01*
X14192660Y-11979464D01*
X14202184Y-11998511D01*
X14211708Y-12036607D01*
X14211708Y-12084226D01*
X14202184Y-12122321D01*
X14192660Y-12141368D01*
X14183136Y-12150892D01*
X14164088Y-12160416D01*
X14145041Y-12160416D01*
X14125993Y-12150892D01*
X14116469Y-12141368D01*
X14106946Y-12122321D01*
X14097422Y-12084226D01*
X14097422Y-12036607D01*
X14106946Y-11998511D01*
X14116469Y-11979464D01*
X14125993Y-11969940D01*
X14145041Y-11960416D01*
X14297422Y-12160416D02*
X14297422Y-12027083D01*
X14297422Y-12046130D02*
X14306946Y-12036607D01*
X14325993Y-12027083D01*
X14354565Y-12027083D01*
X14373612Y-12036607D01*
X14383136Y-12055654D01*
X14383136Y-12160416D01*
X14383136Y-12055654D02*
X14392660Y-12036607D01*
X14411708Y-12027083D01*
X14440279Y-12027083D01*
X14459327Y-12036607D01*
X14468850Y-12055654D01*
X14468850Y-12160416D01*
X14564088Y-12160416D02*
X14564088Y-12027083D01*
X14564088Y-12046130D02*
X14573612Y-12036607D01*
X14592660Y-12027083D01*
X14621231Y-12027083D01*
X14640279Y-12036607D01*
X14649803Y-12055654D01*
X14649803Y-12160416D01*
X14649803Y-12055654D02*
X14659327Y-12036607D01*
X14678374Y-12027083D01*
X14706946Y-12027083D01*
X14725993Y-12036607D01*
X14735517Y-12055654D01*
X14735517Y-12160416D01*
X15125993Y-11950892D02*
X14954565Y-12208035D01*
X15383136Y-11960416D02*
X15402184Y-11960416D01*
X15421231Y-11969940D01*
X15430755Y-11979464D01*
X15440279Y-11998511D01*
X15449803Y-12036607D01*
X15449803Y-12084226D01*
X15440279Y-12122321D01*
X15430755Y-12141368D01*
X15421231Y-12150892D01*
X15402184Y-12160416D01*
X15383136Y-12160416D01*
X15364088Y-12150892D01*
X15354565Y-12141368D01*
X15345041Y-12122321D01*
X15335517Y-12084226D01*
X15335517Y-12036607D01*
X15345041Y-11998511D01*
X15354565Y-11979464D01*
X15364088Y-11969940D01*
X15383136Y-11960416D01*
X15535517Y-12141368D02*
X15545041Y-12150892D01*
X15535517Y-12160416D01*
X15525993Y-12150892D01*
X15535517Y-12141368D01*
X15535517Y-12160416D01*
X15668850Y-11960416D02*
X15687898Y-11960416D01*
X15706946Y-11969940D01*
X15716469Y-11979464D01*
X15725993Y-11998511D01*
X15735517Y-12036607D01*
X15735517Y-12084226D01*
X15725993Y-12122321D01*
X15716469Y-12141368D01*
X15706946Y-12150892D01*
X15687898Y-12160416D01*
X15668850Y-12160416D01*
X15649803Y-12150892D01*
X15640279Y-12141368D01*
X15630755Y-12122321D01*
X15621231Y-12084226D01*
X15621231Y-12036607D01*
X15630755Y-11998511D01*
X15640279Y-11979464D01*
X15649803Y-11969940D01*
X15668850Y-11960416D01*
X15925993Y-12160416D02*
X15811708Y-12160416D01*
X15868850Y-12160416D02*
X15868850Y-11960416D01*
X15849803Y-11988988D01*
X15830755Y-12008035D01*
X15811708Y-12017559D01*
X16106946Y-11960416D02*
X16011708Y-11960416D01*
X16002184Y-12055654D01*
X16011708Y-12046130D01*
X16030755Y-12036607D01*
X16078374Y-12036607D01*
X16097422Y-12046130D01*
X16106946Y-12055654D01*
X16116469Y-12074702D01*
X16116469Y-12122321D01*
X16106946Y-12141368D01*
X16097422Y-12150892D01*
X16078374Y-12160416D01*
X16030755Y-12160416D01*
X16011708Y-12150892D01*
X16002184Y-12141368D01*
X16183136Y-11960416D02*
X16316469Y-11960416D01*
X16230755Y-12160416D01*
X16383136Y-11960416D02*
X16383136Y-11998511D01*
X16459327Y-11960416D02*
X16459327Y-11998511D01*
X16754565Y-12236607D02*
X16745041Y-12227083D01*
X16725993Y-12198511D01*
X16716469Y-12179464D01*
X16706946Y-12150892D01*
X16697422Y-12103273D01*
X16697422Y-12065178D01*
X16706946Y-12017559D01*
X16716469Y-11988988D01*
X16725993Y-11969940D01*
X16745041Y-11941368D01*
X16754565Y-11931845D01*
X16811708Y-11960416D02*
X16935517Y-11960416D01*
X16868850Y-12036607D01*
X16897422Y-12036607D01*
X16916470Y-12046130D01*
X16925993Y-12055654D01*
X16935517Y-12074702D01*
X16935517Y-12122321D01*
X16925993Y-12141368D01*
X16916470Y-12150892D01*
X16897422Y-12160416D01*
X16840279Y-12160416D01*
X16821231Y-12150892D01*
X16811708Y-12141368D01*
X17173612Y-12160416D02*
X17173612Y-11960416D01*
X17259327Y-12160416D02*
X17259327Y-12055654D01*
X17249803Y-12036607D01*
X17230755Y-12027083D01*
X17202184Y-12027083D01*
X17183136Y-12036607D01*
X17173612Y-12046130D01*
X17383136Y-12160416D02*
X17364089Y-12150892D01*
X17354565Y-12141368D01*
X17345041Y-12122321D01*
X17345041Y-12065178D01*
X17354565Y-12046130D01*
X17364089Y-12036607D01*
X17383136Y-12027083D01*
X17411708Y-12027083D01*
X17430755Y-12036607D01*
X17440279Y-12046130D01*
X17449803Y-12065178D01*
X17449803Y-12122321D01*
X17440279Y-12141368D01*
X17430755Y-12150892D01*
X17411708Y-12160416D01*
X17383136Y-12160416D01*
X17564089Y-12160416D02*
X17545041Y-12150892D01*
X17535517Y-12131845D01*
X17535517Y-11960416D01*
X17716470Y-12150892D02*
X17697422Y-12160416D01*
X17659327Y-12160416D01*
X17640279Y-12150892D01*
X17630755Y-12131845D01*
X17630755Y-12055654D01*
X17640279Y-12036607D01*
X17659327Y-12027083D01*
X17697422Y-12027083D01*
X17716470Y-12036607D01*
X17725993Y-12055654D01*
X17725993Y-12074702D01*
X17630755Y-12093749D01*
X17802184Y-12150892D02*
X17821231Y-12160416D01*
X17859327Y-12160416D01*
X17878374Y-12150892D01*
X17887898Y-12131845D01*
X17887898Y-12122321D01*
X17878374Y-12103273D01*
X17859327Y-12093749D01*
X17830755Y-12093749D01*
X17811708Y-12084226D01*
X17802184Y-12065178D01*
X17802184Y-12055654D01*
X17811708Y-12036607D01*
X17830755Y-12027083D01*
X17859327Y-12027083D01*
X17878374Y-12036607D01*
X17954565Y-12236607D02*
X17964089Y-12227083D01*
X17983136Y-12198511D01*
X17992660Y-12179464D01*
X18002184Y-12150892D01*
X18011708Y-12103273D01*
X18011708Y-12065178D01*
X18002184Y-12017559D01*
X17992660Y-11988988D01*
X17983136Y-11969940D01*
X17964089Y-11941368D01*
X17954565Y-11931845D01*
D10*
X13182660Y-12333940D02*
G75*
G03*
X13182660Y-12333940I-50000J0D01*
G01*
D11*
X13545041Y-12424416D02*
X13430755Y-12424416D01*
X13487898Y-12424416D02*
X13487898Y-12224416D01*
X13468850Y-12252988D01*
X13449803Y-12272035D01*
X13430755Y-12281559D01*
X13630755Y-12405368D02*
X13640279Y-12414892D01*
X13630755Y-12424416D01*
X13621231Y-12414892D01*
X13630755Y-12405368D01*
X13630755Y-12424416D01*
X13764088Y-12224416D02*
X13783136Y-12224416D01*
X13802184Y-12233940D01*
X13811708Y-12243464D01*
X13821231Y-12262511D01*
X13830755Y-12300607D01*
X13830755Y-12348226D01*
X13821231Y-12386321D01*
X13811708Y-12405368D01*
X13802184Y-12414892D01*
X13783136Y-12424416D01*
X13764088Y-12424416D01*
X13745041Y-12414892D01*
X13735517Y-12405368D01*
X13725993Y-12386321D01*
X13716469Y-12348226D01*
X13716469Y-12300607D01*
X13725993Y-12262511D01*
X13735517Y-12243464D01*
X13745041Y-12233940D01*
X13764088Y-12224416D01*
X13954565Y-12224416D02*
X13973612Y-12224416D01*
X13992660Y-12233940D01*
X14002184Y-12243464D01*
X14011708Y-12262511D01*
X14021231Y-12300607D01*
X14021231Y-12348226D01*
X14011708Y-12386321D01*
X14002184Y-12405368D01*
X13992660Y-12414892D01*
X13973612Y-12424416D01*
X13954565Y-12424416D01*
X13935517Y-12414892D01*
X13925993Y-12405368D01*
X13916469Y-12386321D01*
X13906946Y-12348226D01*
X13906946Y-12300607D01*
X13916469Y-12262511D01*
X13925993Y-12243464D01*
X13935517Y-12233940D01*
X13954565Y-12224416D01*
X14145041Y-12224416D02*
X14164088Y-12224416D01*
X14183136Y-12233940D01*
X14192660Y-12243464D01*
X14202184Y-12262511D01*
X14211708Y-12300607D01*
X14211708Y-12348226D01*
X14202184Y-12386321D01*
X14192660Y-12405368D01*
X14183136Y-12414892D01*
X14164088Y-12424416D01*
X14145041Y-12424416D01*
X14125993Y-12414892D01*
X14116469Y-12405368D01*
X14106946Y-12386321D01*
X14097422Y-12348226D01*
X14097422Y-12300607D01*
X14106946Y-12262511D01*
X14116469Y-12243464D01*
X14125993Y-12233940D01*
X14145041Y-12224416D01*
X14297422Y-12424416D02*
X14297422Y-12291083D01*
X14297422Y-12310130D02*
X14306946Y-12300607D01*
X14325993Y-12291083D01*
X14354565Y-12291083D01*
X14373612Y-12300607D01*
X14383136Y-12319654D01*
X14383136Y-12424416D01*
X14383136Y-12319654D02*
X14392660Y-12300607D01*
X14411708Y-12291083D01*
X14440279Y-12291083D01*
X14459327Y-12300607D01*
X14468850Y-12319654D01*
X14468850Y-12424416D01*
X14564088Y-12424416D02*
X14564088Y-12291083D01*
X14564088Y-12310130D02*
X14573612Y-12300607D01*
X14592660Y-12291083D01*
X14621231Y-12291083D01*
X14640279Y-12300607D01*
X14649803Y-12319654D01*
X14649803Y-12424416D01*
X14649803Y-12319654D02*
X14659327Y-12300607D01*
X14678374Y-12291083D01*
X14706946Y-12291083D01*
X14725993Y-12300607D01*
X14735517Y-12319654D01*
X14735517Y-12424416D01*
X15125993Y-12214892D02*
X14954565Y-12472035D01*
X15383136Y-12224416D02*
X15402184Y-12224416D01*
X15421231Y-12233940D01*
X15430755Y-12243464D01*
X15440279Y-12262511D01*
X15449803Y-12300607D01*
X15449803Y-12348226D01*
X15440279Y-12386321D01*
X15430755Y-12405368D01*
X15421231Y-12414892D01*
X15402184Y-12424416D01*
X15383136Y-12424416D01*
X15364088Y-12414892D01*
X15354565Y-12405368D01*
X15345041Y-12386321D01*
X15335517Y-12348226D01*
X15335517Y-12300607D01*
X15345041Y-12262511D01*
X15354565Y-12243464D01*
X15364088Y-12233940D01*
X15383136Y-12224416D01*
X15535517Y-12405368D02*
X15545041Y-12414892D01*
X15535517Y-12424416D01*
X15525993Y-12414892D01*
X15535517Y-12405368D01*
X15535517Y-12424416D01*
X15668850Y-12224416D02*
X15687898Y-12224416D01*
X15706946Y-12233940D01*
X15716469Y-12243464D01*
X15725993Y-12262511D01*
X15735517Y-12300607D01*
X15735517Y-12348226D01*
X15725993Y-12386321D01*
X15716469Y-12405368D01*
X15706946Y-12414892D01*
X15687898Y-12424416D01*
X15668850Y-12424416D01*
X15649803Y-12414892D01*
X15640279Y-12405368D01*
X15630755Y-12386321D01*
X15621231Y-12348226D01*
X15621231Y-12300607D01*
X15630755Y-12262511D01*
X15640279Y-12243464D01*
X15649803Y-12233940D01*
X15668850Y-12224416D01*
X15802184Y-12224416D02*
X15925993Y-12224416D01*
X15859327Y-12300607D01*
X15887898Y-12300607D01*
X15906946Y-12310130D01*
X15916469Y-12319654D01*
X15925993Y-12338702D01*
X15925993Y-12386321D01*
X15916469Y-12405368D01*
X15906946Y-12414892D01*
X15887898Y-12424416D01*
X15830755Y-12424416D01*
X15811708Y-12414892D01*
X15802184Y-12405368D01*
X16021231Y-12424416D02*
X16059327Y-12424416D01*
X16078374Y-12414892D01*
X16087898Y-12405368D01*
X16106946Y-12376797D01*
X16116469Y-12338702D01*
X16116469Y-12262511D01*
X16106946Y-12243464D01*
X16097422Y-12233940D01*
X16078374Y-12224416D01*
X16040279Y-12224416D01*
X16021231Y-12233940D01*
X16011708Y-12243464D01*
X16002184Y-12262511D01*
X16002184Y-12310130D01*
X16011708Y-12329178D01*
X16021231Y-12338702D01*
X16040279Y-12348226D01*
X16078374Y-12348226D01*
X16097422Y-12338702D01*
X16106946Y-12329178D01*
X16116469Y-12310130D01*
X16287898Y-12291083D02*
X16287898Y-12424416D01*
X16240279Y-12214892D02*
X16192660Y-12357749D01*
X16316469Y-12357749D01*
X16383136Y-12224416D02*
X16383136Y-12262511D01*
X16459327Y-12224416D02*
X16459327Y-12262511D01*
X16754565Y-12500607D02*
X16745041Y-12491083D01*
X16725993Y-12462511D01*
X16716469Y-12443464D01*
X16706946Y-12414892D01*
X16697422Y-12367273D01*
X16697422Y-12329178D01*
X16706946Y-12281559D01*
X16716469Y-12252988D01*
X16725993Y-12233940D01*
X16745041Y-12205368D01*
X16754565Y-12195845D01*
X16840279Y-12424416D02*
X16878374Y-12424416D01*
X16897422Y-12414892D01*
X16906946Y-12405368D01*
X16925993Y-12376797D01*
X16935517Y-12338702D01*
X16935517Y-12262511D01*
X16925993Y-12243464D01*
X16916470Y-12233940D01*
X16897422Y-12224416D01*
X16859327Y-12224416D01*
X16840279Y-12233940D01*
X16830755Y-12243464D01*
X16821231Y-12262511D01*
X16821231Y-12310130D01*
X16830755Y-12329178D01*
X16840279Y-12338702D01*
X16859327Y-12348226D01*
X16897422Y-12348226D01*
X16916470Y-12338702D01*
X16925993Y-12329178D01*
X16935517Y-12310130D01*
X17173612Y-12424416D02*
X17173612Y-12224416D01*
X17259327Y-12424416D02*
X17259327Y-12319654D01*
X17249803Y-12300607D01*
X17230755Y-12291083D01*
X17202184Y-12291083D01*
X17183136Y-12300607D01*
X17173612Y-12310130D01*
X17383136Y-12424416D02*
X17364089Y-12414892D01*
X17354565Y-12405368D01*
X17345041Y-12386321D01*
X17345041Y-12329178D01*
X17354565Y-12310130D01*
X17364089Y-12300607D01*
X17383136Y-12291083D01*
X17411708Y-12291083D01*
X17430755Y-12300607D01*
X17440279Y-12310130D01*
X17449803Y-12329178D01*
X17449803Y-12386321D01*
X17440279Y-12405368D01*
X17430755Y-12414892D01*
X17411708Y-12424416D01*
X17383136Y-12424416D01*
X17564089Y-12424416D02*
X17545041Y-12414892D01*
X17535517Y-12395845D01*
X17535517Y-12224416D01*
X17716470Y-12414892D02*
X17697422Y-12424416D01*
X17659327Y-12424416D01*
X17640279Y-12414892D01*
X17630755Y-12395845D01*
X17630755Y-12319654D01*
X17640279Y-12300607D01*
X17659327Y-12291083D01*
X17697422Y-12291083D01*
X17716470Y-12300607D01*
X17725993Y-12319654D01*
X17725993Y-12338702D01*
X17630755Y-12357749D01*
X17802184Y-12414892D02*
X17821231Y-12424416D01*
X17859327Y-12424416D01*
X17878374Y-12414892D01*
X17887898Y-12395845D01*
X17887898Y-12386321D01*
X17878374Y-12367273D01*
X17859327Y-12357749D01*
X17830755Y-12357749D01*
X17811708Y-12348226D01*
X17802184Y-12329178D01*
X17802184Y-12319654D01*
X17811708Y-12300607D01*
X17830755Y-12291083D01*
X17859327Y-12291083D01*
X17878374Y-12300607D01*
X17954565Y-12500607D02*
X17964089Y-12491083D01*
X17983136Y-12462511D01*
X17992660Y-12443464D01*
X18002184Y-12414892D01*
X18011708Y-12367273D01*
X18011708Y-12329178D01*
X18002184Y-12281559D01*
X17992660Y-12252988D01*
X17983136Y-12233940D01*
X17964089Y-12205368D01*
X17954565Y-12195845D01*
D13*
X13094160Y-12509440D02*
X13094160Y-12686440D01*
X13005660Y-12597940D02*
X13182660Y-12597940D01*
D11*
X13545041Y-12688416D02*
X13430755Y-12688416D01*
X13487898Y-12688416D02*
X13487898Y-12488416D01*
X13468850Y-12516988D01*
X13449803Y-12536035D01*
X13430755Y-12545559D01*
X13630755Y-12669368D02*
X13640279Y-12678892D01*
X13630755Y-12688416D01*
X13621231Y-12678892D01*
X13630755Y-12669368D01*
X13630755Y-12688416D01*
X13706946Y-12488416D02*
X13840279Y-12488416D01*
X13754565Y-12688416D01*
X13897422Y-12488416D02*
X14030755Y-12488416D01*
X13945041Y-12688416D01*
X14145041Y-12488416D02*
X14164088Y-12488416D01*
X14183136Y-12497940D01*
X14192660Y-12507464D01*
X14202184Y-12526511D01*
X14211708Y-12564607D01*
X14211708Y-12612226D01*
X14202184Y-12650321D01*
X14192660Y-12669368D01*
X14183136Y-12678892D01*
X14164088Y-12688416D01*
X14145041Y-12688416D01*
X14125993Y-12678892D01*
X14116469Y-12669368D01*
X14106946Y-12650321D01*
X14097422Y-12612226D01*
X14097422Y-12564607D01*
X14106946Y-12526511D01*
X14116469Y-12507464D01*
X14125993Y-12497940D01*
X14145041Y-12488416D01*
X14297422Y-12688416D02*
X14297422Y-12555083D01*
X14297422Y-12574130D02*
X14306946Y-12564607D01*
X14325993Y-12555083D01*
X14354565Y-12555083D01*
X14373612Y-12564607D01*
X14383136Y-12583654D01*
X14383136Y-12688416D01*
X14383136Y-12583654D02*
X14392660Y-12564607D01*
X14411708Y-12555083D01*
X14440279Y-12555083D01*
X14459327Y-12564607D01*
X14468850Y-12583654D01*
X14468850Y-12688416D01*
X14564088Y-12688416D02*
X14564088Y-12555083D01*
X14564088Y-12574130D02*
X14573612Y-12564607D01*
X14592660Y-12555083D01*
X14621231Y-12555083D01*
X14640279Y-12564607D01*
X14649803Y-12583654D01*
X14649803Y-12688416D01*
X14649803Y-12583654D02*
X14659327Y-12564607D01*
X14678374Y-12555083D01*
X14706946Y-12555083D01*
X14725993Y-12564607D01*
X14735517Y-12583654D01*
X14735517Y-12688416D01*
X15125993Y-12478892D02*
X14954565Y-12736035D01*
X15383136Y-12488416D02*
X15402184Y-12488416D01*
X15421231Y-12497940D01*
X15430755Y-12507464D01*
X15440279Y-12526511D01*
X15449803Y-12564607D01*
X15449803Y-12612226D01*
X15440279Y-12650321D01*
X15430755Y-12669368D01*
X15421231Y-12678892D01*
X15402184Y-12688416D01*
X15383136Y-12688416D01*
X15364088Y-12678892D01*
X15354565Y-12669368D01*
X15345041Y-12650321D01*
X15335517Y-12612226D01*
X15335517Y-12564607D01*
X15345041Y-12526511D01*
X15354565Y-12507464D01*
X15364088Y-12497940D01*
X15383136Y-12488416D01*
X15535517Y-12669368D02*
X15545041Y-12678892D01*
X15535517Y-12688416D01*
X15525993Y-12678892D01*
X15535517Y-12669368D01*
X15535517Y-12688416D01*
X15668850Y-12488416D02*
X15687898Y-12488416D01*
X15706946Y-12497940D01*
X15716469Y-12507464D01*
X15725993Y-12526511D01*
X15735517Y-12564607D01*
X15735517Y-12612226D01*
X15725993Y-12650321D01*
X15716469Y-12669368D01*
X15706946Y-12678892D01*
X15687898Y-12688416D01*
X15668850Y-12688416D01*
X15649803Y-12678892D01*
X15640279Y-12669368D01*
X15630755Y-12650321D01*
X15621231Y-12612226D01*
X15621231Y-12564607D01*
X15630755Y-12526511D01*
X15640279Y-12507464D01*
X15649803Y-12497940D01*
X15668850Y-12488416D01*
X15906946Y-12488416D02*
X15868850Y-12488416D01*
X15849803Y-12497940D01*
X15840279Y-12507464D01*
X15821231Y-12536035D01*
X15811708Y-12574130D01*
X15811708Y-12650321D01*
X15821231Y-12669368D01*
X15830755Y-12678892D01*
X15849803Y-12688416D01*
X15887898Y-12688416D01*
X15906946Y-12678892D01*
X15916469Y-12669368D01*
X15925993Y-12650321D01*
X15925993Y-12602702D01*
X15916469Y-12583654D01*
X15906946Y-12574130D01*
X15887898Y-12564607D01*
X15849803Y-12564607D01*
X15830755Y-12574130D01*
X15821231Y-12583654D01*
X15811708Y-12602702D01*
X16021231Y-12688416D02*
X16059327Y-12688416D01*
X16078374Y-12678892D01*
X16087898Y-12669368D01*
X16106946Y-12640797D01*
X16116469Y-12602702D01*
X16116469Y-12526511D01*
X16106946Y-12507464D01*
X16097422Y-12497940D01*
X16078374Y-12488416D01*
X16040279Y-12488416D01*
X16021231Y-12497940D01*
X16011708Y-12507464D01*
X16002184Y-12526511D01*
X16002184Y-12574130D01*
X16011708Y-12593178D01*
X16021231Y-12602702D01*
X16040279Y-12612226D01*
X16078374Y-12612226D01*
X16097422Y-12602702D01*
X16106946Y-12593178D01*
X16116469Y-12574130D01*
X16183136Y-12488416D02*
X16316469Y-12488416D01*
X16230755Y-12688416D01*
X16383136Y-12488416D02*
X16383136Y-12526511D01*
X16459327Y-12488416D02*
X16459327Y-12526511D01*
X16754565Y-12764607D02*
X16745041Y-12755083D01*
X16725993Y-12726511D01*
X16716469Y-12707464D01*
X16706946Y-12678892D01*
X16697422Y-12631273D01*
X16697422Y-12593178D01*
X16706946Y-12545559D01*
X16716469Y-12516988D01*
X16725993Y-12497940D01*
X16745041Y-12469368D01*
X16754565Y-12459845D01*
X16811708Y-12488416D02*
X16935517Y-12488416D01*
X16868850Y-12564607D01*
X16897422Y-12564607D01*
X16916470Y-12574130D01*
X16925993Y-12583654D01*
X16935517Y-12602702D01*
X16935517Y-12650321D01*
X16925993Y-12669368D01*
X16916470Y-12678892D01*
X16897422Y-12688416D01*
X16840279Y-12688416D01*
X16821231Y-12678892D01*
X16811708Y-12669368D01*
X17173612Y-12688416D02*
X17173612Y-12488416D01*
X17259327Y-12688416D02*
X17259327Y-12583654D01*
X17249803Y-12564607D01*
X17230755Y-12555083D01*
X17202184Y-12555083D01*
X17183136Y-12564607D01*
X17173612Y-12574130D01*
X17383136Y-12688416D02*
X17364089Y-12678892D01*
X17354565Y-12669368D01*
X17345041Y-12650321D01*
X17345041Y-12593178D01*
X17354565Y-12574130D01*
X17364089Y-12564607D01*
X17383136Y-12555083D01*
X17411708Y-12555083D01*
X17430755Y-12564607D01*
X17440279Y-12574130D01*
X17449803Y-12593178D01*
X17449803Y-12650321D01*
X17440279Y-12669368D01*
X17430755Y-12678892D01*
X17411708Y-12688416D01*
X17383136Y-12688416D01*
X17564089Y-12688416D02*
X17545041Y-12678892D01*
X17535517Y-12659845D01*
X17535517Y-12488416D01*
X17716470Y-12678892D02*
X17697422Y-12688416D01*
X17659327Y-12688416D01*
X17640279Y-12678892D01*
X17630755Y-12659845D01*
X17630755Y-12583654D01*
X17640279Y-12564607D01*
X17659327Y-12555083D01*
X17697422Y-12555083D01*
X17716470Y-12564607D01*
X17725993Y-12583654D01*
X17725993Y-12602702D01*
X17630755Y-12621749D01*
X17802184Y-12678892D02*
X17821231Y-12688416D01*
X17859327Y-12688416D01*
X17878374Y-12678892D01*
X17887898Y-12659845D01*
X17887898Y-12650321D01*
X17878374Y-12631273D01*
X17859327Y-12621749D01*
X17830755Y-12621749D01*
X17811708Y-12612226D01*
X17802184Y-12593178D01*
X17802184Y-12583654D01*
X17811708Y-12564607D01*
X17830755Y-12555083D01*
X17859327Y-12555083D01*
X17878374Y-12564607D01*
X17954565Y-12764607D02*
X17964089Y-12755083D01*
X17983136Y-12726511D01*
X17992660Y-12707464D01*
X18002184Y-12678892D01*
X18011708Y-12631273D01*
X18011708Y-12593178D01*
X18002184Y-12545559D01*
X17992660Y-12516988D01*
X17983136Y-12497940D01*
X17964089Y-12469368D01*
X17954565Y-12459845D01*
M02*
