%TF.GenerationSoftware,KiCad,Pcbnew,(6.0.8-1)-1*%
%TF.CreationDate,2024-01-05T14:00:35-06:00*%
%TF.ProjectId,Vishay 357 Pot Amplifier,56697368-6179-4203-9335-3720506f7420,rev?*%
%TF.SameCoordinates,Original*%
%TF.FileFunction,Drillmap*%
%TF.FilePolarity,Positive*%
%FSLAX45Y45*%
G04 Gerber Fmt 4.5, Leading zero omitted, Abs format (unit mm)*
G04 Created by KiCad (PCBNEW (6.0.8-1)-1) date 2024-01-05 14:00:35*
%MOMM*%
%LPD*%
G01*
G04 APERTURE LIST*
%ADD10C,0.100000*%
%ADD11C,0.200000*%
G04 APERTURE END LIST*
D10*
X15407660Y-10314940D02*
G75*
G03*
X15407660Y-10314940I-1110000J0D01*
G01*
D11*
X13440279Y-11740416D02*
X13440279Y-11540416D01*
X13487898Y-11540416D01*
X13516469Y-11549940D01*
X13535517Y-11568988D01*
X13545041Y-11588035D01*
X13554565Y-11626130D01*
X13554565Y-11654702D01*
X13545041Y-11692797D01*
X13535517Y-11711845D01*
X13516469Y-11730892D01*
X13487898Y-11740416D01*
X13440279Y-11740416D01*
X13640279Y-11740416D02*
X13640279Y-11607083D01*
X13640279Y-11645178D02*
X13649803Y-11626130D01*
X13659327Y-11616607D01*
X13678374Y-11607083D01*
X13697422Y-11607083D01*
X13764088Y-11740416D02*
X13764088Y-11607083D01*
X13764088Y-11540416D02*
X13754565Y-11549940D01*
X13764088Y-11559464D01*
X13773612Y-11549940D01*
X13764088Y-11540416D01*
X13764088Y-11559464D01*
X13887898Y-11740416D02*
X13868850Y-11730892D01*
X13859327Y-11711845D01*
X13859327Y-11540416D01*
X13992660Y-11740416D02*
X13973612Y-11730892D01*
X13964088Y-11711845D01*
X13964088Y-11540416D01*
X14221231Y-11740416D02*
X14221231Y-11540416D01*
X14287898Y-11683273D01*
X14354565Y-11540416D01*
X14354565Y-11740416D01*
X14535517Y-11740416D02*
X14535517Y-11635654D01*
X14525993Y-11616607D01*
X14506946Y-11607083D01*
X14468850Y-11607083D01*
X14449803Y-11616607D01*
X14535517Y-11730892D02*
X14516469Y-11740416D01*
X14468850Y-11740416D01*
X14449803Y-11730892D01*
X14440279Y-11711845D01*
X14440279Y-11692797D01*
X14449803Y-11673749D01*
X14468850Y-11664226D01*
X14516469Y-11664226D01*
X14535517Y-11654702D01*
X14630755Y-11607083D02*
X14630755Y-11807083D01*
X14630755Y-11616607D02*
X14649803Y-11607083D01*
X14687898Y-11607083D01*
X14706946Y-11616607D01*
X14716469Y-11626130D01*
X14725993Y-11645178D01*
X14725993Y-11702321D01*
X14716469Y-11721368D01*
X14706946Y-11730892D01*
X14687898Y-11740416D01*
X14649803Y-11740416D01*
X14630755Y-11730892D01*
X14811708Y-11721368D02*
X14821231Y-11730892D01*
X14811708Y-11740416D01*
X14802184Y-11730892D01*
X14811708Y-11721368D01*
X14811708Y-11740416D01*
X14811708Y-11616607D02*
X14821231Y-11626130D01*
X14811708Y-11635654D01*
X14802184Y-11626130D01*
X14811708Y-11616607D01*
X14811708Y-11635654D01*
M02*
