%TF.GenerationSoftware,KiCad,Pcbnew,(6.0.8-1)-1*%
%TF.CreationDate,2024-01-05T14:00:27-06:00*%
%TF.ProjectId,Vishay 357 Pot Amplifier,56697368-6179-4203-9335-3720506f7420,rev?*%
%TF.SameCoordinates,Original*%
%TF.FileFunction,Legend,Bot*%
%TF.FilePolarity,Positive*%
%FSLAX46Y46*%
G04 Gerber Fmt 4.6, Leading zero omitted, Abs format (unit mm)*
G04 Created by KiCad (PCBNEW (6.0.8-1)-1) date 2024-01-05 14:00:27*
%MOMM*%
%LPD*%
G01*
G04 APERTURE LIST*
%ADD10C,0.155000*%
%ADD11C,0.150000*%
%ADD12C,0.120000*%
G04 APERTURE END LIST*
D10*
X148409523Y-98333333D02*
X148457142Y-98285714D01*
X148552380Y-98142857D01*
X148600000Y-98047619D01*
X148647619Y-97904761D01*
X148695238Y-97666666D01*
X148695238Y-97476190D01*
X148647619Y-97238095D01*
X148600000Y-97095238D01*
X148552380Y-97000000D01*
X148457142Y-96857142D01*
X148409523Y-96809523D01*
X147600000Y-97904761D02*
X147695238Y-97952380D01*
X147885714Y-97952380D01*
X147980952Y-97904761D01*
X148028571Y-97857142D01*
X148076190Y-97761904D01*
X148076190Y-97476190D01*
X148028571Y-97380952D01*
X147980952Y-97333333D01*
X147885714Y-97285714D01*
X147695238Y-97285714D01*
X147600000Y-97333333D01*
X147266666Y-98333333D02*
X147219047Y-98285714D01*
X147123809Y-98142857D01*
X147076190Y-98047619D01*
X147028571Y-97904761D01*
X146980952Y-97666666D01*
X146980952Y-97476190D01*
X147028571Y-97238095D01*
X147076190Y-97095238D01*
X147123809Y-97000000D01*
X147219047Y-96857142D01*
X147266666Y-96809523D01*
X145790476Y-97047619D02*
X145742857Y-97000000D01*
X145647619Y-96952380D01*
X145409523Y-96952380D01*
X145314285Y-97000000D01*
X145266666Y-97047619D01*
X145219047Y-97142857D01*
X145219047Y-97238095D01*
X145266666Y-97380952D01*
X145838095Y-97952380D01*
X145219047Y-97952380D01*
X144600000Y-96952380D02*
X144504761Y-96952380D01*
X144409523Y-97000000D01*
X144361904Y-97047619D01*
X144314285Y-97142857D01*
X144266666Y-97333333D01*
X144266666Y-97571428D01*
X144314285Y-97761904D01*
X144361904Y-97857142D01*
X144409523Y-97904761D01*
X144504761Y-97952380D01*
X144600000Y-97952380D01*
X144695238Y-97904761D01*
X144742857Y-97857142D01*
X144790476Y-97761904D01*
X144838095Y-97571428D01*
X144838095Y-97333333D01*
X144790476Y-97142857D01*
X144742857Y-97047619D01*
X144695238Y-97000000D01*
X144600000Y-96952380D01*
X143885714Y-97047619D02*
X143838095Y-97000000D01*
X143742857Y-96952380D01*
X143504761Y-96952380D01*
X143409523Y-97000000D01*
X143361904Y-97047619D01*
X143314285Y-97142857D01*
X143314285Y-97238095D01*
X143361904Y-97380952D01*
X143933333Y-97952380D01*
X143314285Y-97952380D01*
X142980952Y-96952380D02*
X142361904Y-96952380D01*
X142695238Y-97333333D01*
X142552380Y-97333333D01*
X142457142Y-97380952D01*
X142409523Y-97428571D01*
X142361904Y-97523809D01*
X142361904Y-97761904D01*
X142409523Y-97857142D01*
X142457142Y-97904761D01*
X142552380Y-97952380D01*
X142838095Y-97952380D01*
X142933333Y-97904761D01*
X142980952Y-97857142D01*
X141219047Y-97904761D02*
X141076190Y-97952380D01*
X140838095Y-97952380D01*
X140742857Y-97904761D01*
X140695238Y-97857142D01*
X140647619Y-97761904D01*
X140647619Y-97666666D01*
X140695238Y-97571428D01*
X140742857Y-97523809D01*
X140838095Y-97476190D01*
X141028571Y-97428571D01*
X141123809Y-97380952D01*
X141171428Y-97333333D01*
X141219047Y-97238095D01*
X141219047Y-97142857D01*
X141171428Y-97047619D01*
X141123809Y-97000000D01*
X141028571Y-96952380D01*
X140790476Y-96952380D01*
X140647619Y-97000000D01*
X140219047Y-97952380D02*
X140219047Y-96952380D01*
X140219047Y-97428571D02*
X139647619Y-97428571D01*
X139647619Y-97952380D02*
X139647619Y-96952380D01*
X138600000Y-97952380D02*
X138933333Y-97476190D01*
X139171428Y-97952380D02*
X139171428Y-96952380D01*
X138790476Y-96952380D01*
X138695238Y-97000000D01*
X138647619Y-97047619D01*
X138600000Y-97142857D01*
X138600000Y-97285714D01*
X138647619Y-97380952D01*
X138695238Y-97428571D01*
X138790476Y-97476190D01*
X139171428Y-97476190D01*
X138171428Y-97952380D02*
X138171428Y-96952380D01*
X137838095Y-97666666D01*
X137504761Y-96952380D01*
X137504761Y-97952380D01*
X147366666Y-95552380D02*
X147366666Y-94552380D01*
X146985714Y-94552380D01*
X146890476Y-94600000D01*
X146842857Y-94647619D01*
X146795238Y-94742857D01*
X146795238Y-94885714D01*
X146842857Y-94980952D01*
X146890476Y-95028571D01*
X146985714Y-95076190D01*
X147366666Y-95076190D01*
X146223809Y-95552380D02*
X146319047Y-95504761D01*
X146366666Y-95457142D01*
X146414285Y-95361904D01*
X146414285Y-95076190D01*
X146366666Y-94980952D01*
X146319047Y-94933333D01*
X146223809Y-94885714D01*
X146080952Y-94885714D01*
X145985714Y-94933333D01*
X145938095Y-94980952D01*
X145890476Y-95076190D01*
X145890476Y-95361904D01*
X145938095Y-95457142D01*
X145985714Y-95504761D01*
X146080952Y-95552380D01*
X146223809Y-95552380D01*
X145604761Y-94885714D02*
X145223809Y-94885714D01*
X145461904Y-94552380D02*
X145461904Y-95409523D01*
X145414285Y-95504761D01*
X145319047Y-95552380D01*
X145223809Y-95552380D01*
X144271428Y-94885714D02*
X143890476Y-94885714D01*
X144128571Y-94552380D02*
X144128571Y-95409523D01*
X144080952Y-95504761D01*
X143985714Y-95552380D01*
X143890476Y-95552380D01*
X143557142Y-95552380D02*
X143557142Y-94552380D01*
X143128571Y-95552380D02*
X143128571Y-95028571D01*
X143176190Y-94933333D01*
X143271428Y-94885714D01*
X143414285Y-94885714D01*
X143509523Y-94933333D01*
X143557142Y-94980952D01*
X142652380Y-95552380D02*
X142652380Y-94885714D01*
X142652380Y-94552380D02*
X142700000Y-94600000D01*
X142652380Y-94647619D01*
X142604761Y-94600000D01*
X142652380Y-94552380D01*
X142652380Y-94647619D01*
X142223809Y-95504761D02*
X142128571Y-95552380D01*
X141938095Y-95552380D01*
X141842857Y-95504761D01*
X141795238Y-95409523D01*
X141795238Y-95361904D01*
X141842857Y-95266666D01*
X141938095Y-95219047D01*
X142080952Y-95219047D01*
X142176190Y-95171428D01*
X142223809Y-95076190D01*
X142223809Y-95028571D01*
X142176190Y-94933333D01*
X142080952Y-94885714D01*
X141938095Y-94885714D01*
X141842857Y-94933333D01*
X140652380Y-95504761D02*
X140557142Y-95552380D01*
X140366666Y-95552380D01*
X140271428Y-95504761D01*
X140223809Y-95409523D01*
X140223809Y-95361904D01*
X140271428Y-95266666D01*
X140366666Y-95219047D01*
X140509523Y-95219047D01*
X140604761Y-95171428D01*
X140652380Y-95076190D01*
X140652380Y-95028571D01*
X140604761Y-94933333D01*
X140509523Y-94885714D01*
X140366666Y-94885714D01*
X140271428Y-94933333D01*
X139795238Y-95552380D02*
X139795238Y-94885714D01*
X139795238Y-94552380D02*
X139842857Y-94600000D01*
X139795238Y-94647619D01*
X139747619Y-94600000D01*
X139795238Y-94552380D01*
X139795238Y-94647619D01*
X138890476Y-95552380D02*
X138890476Y-94552380D01*
X138890476Y-95504761D02*
X138985714Y-95552380D01*
X139176190Y-95552380D01*
X139271428Y-95504761D01*
X139319047Y-95457142D01*
X139366666Y-95361904D01*
X139366666Y-95076190D01*
X139319047Y-94980952D01*
X139271428Y-94933333D01*
X139176190Y-94885714D01*
X138985714Y-94885714D01*
X138890476Y-94933333D01*
X138033333Y-95504761D02*
X138128571Y-95552380D01*
X138319047Y-95552380D01*
X138414285Y-95504761D01*
X138461904Y-95409523D01*
X138461904Y-95028571D01*
X138414285Y-94933333D01*
X138319047Y-94885714D01*
X138128571Y-94885714D01*
X138033333Y-94933333D01*
X137985714Y-95028571D01*
X137985714Y-95123809D01*
X138461904Y-95219047D01*
D11*
%TO.C,RV1*%
X145695238Y-105952380D02*
X146028571Y-105476190D01*
X146266666Y-105952380D02*
X146266666Y-104952380D01*
X145885714Y-104952380D01*
X145790476Y-105000000D01*
X145742857Y-105047619D01*
X145695238Y-105142857D01*
X145695238Y-105285714D01*
X145742857Y-105380952D01*
X145790476Y-105428571D01*
X145885714Y-105476190D01*
X146266666Y-105476190D01*
X145409523Y-104952380D02*
X145076190Y-105952380D01*
X144742857Y-104952380D01*
X143885714Y-105952380D02*
X144457142Y-105952380D01*
X144171428Y-105952380D02*
X144171428Y-104952380D01*
X144266666Y-105095238D01*
X144361904Y-105190476D01*
X144457142Y-105238095D01*
D12*
X144226600Y-102149400D02*
X143726600Y-104149400D01*
X143726600Y-104149400D02*
X143226600Y-102149400D01*
X142976600Y-104399400D02*
X142476600Y-104899400D01*
X140726600Y-103149400D02*
X139726600Y-103149400D01*
X142976600Y-104399400D02*
X142976600Y-105899400D01*
X142726600Y-104149400D02*
X142226600Y-102149400D01*
X146226600Y-101649400D02*
X146226600Y-103149400D01*
X145226600Y-103149400D02*
X144726600Y-104149400D01*
X139726600Y-103149400D02*
X139726600Y-101649400D01*
X141226600Y-102149400D02*
X140726600Y-103149400D01*
X143226600Y-102149400D02*
X142726600Y-104149400D01*
X143476600Y-104899400D02*
X142976600Y-104399400D01*
X144726600Y-104149400D02*
X144226600Y-102149400D01*
X142226600Y-102149400D02*
X141726600Y-104149400D01*
X141726600Y-104149400D02*
X141226600Y-102149400D01*
X146226600Y-103149400D02*
X145226600Y-103149400D01*
X152976600Y-103149400D02*
G75*
G03*
X152976600Y-103149400I-10000000J0D01*
G01*
%TD*%
M02*
