%TF.GenerationSoftware,KiCad,Pcbnew,(6.0.8-1)-1*%
%TF.CreationDate,2024-01-05T14:00:27-06:00*%
%TF.ProjectId,Vishay 357 Pot Amplifier,56697368-6179-4203-9335-3720506f7420,rev?*%
%TF.SameCoordinates,Original*%
%TF.FileFunction,Copper,L2,Bot*%
%TF.FilePolarity,Positive*%
%FSLAX46Y46*%
G04 Gerber Fmt 4.6, Leading zero omitted, Abs format (unit mm)*
G04 Created by KiCad (PCBNEW (6.0.8-1)-1) date 2024-01-05 14:00:27*
%MOMM*%
%LPD*%
G01*
G04 APERTURE LIST*
G04 Aperture macros list*
%AMHorizOval*
0 Thick line with rounded ends*
0 $1 width*
0 $2 $3 position (X,Y) of the first rounded end (center of the circle)*
0 $4 $5 position (X,Y) of the second rounded end (center of the circle)*
0 Add line between two ends*
20,1,$1,$2,$3,$4,$5,0*
0 Add two circle primitives to create the rounded ends*
1,1,$1,$2,$3*
1,1,$1,$4,$5*%
%AMRotRect*
0 Rectangle, with rotation*
0 The origin of the aperture is its center*
0 $1 length*
0 $2 width*
0 $3 Rotation angle, in degrees counterclockwise*
0 Add horizontal line*
21,1,$1,$2,0,0,$3*%
G04 Aperture macros list end*
%TA.AperFunction,ComponentPad*%
%ADD10R,1.700000X1.700000*%
%TD*%
%TA.AperFunction,ComponentPad*%
%ADD11O,1.700000X1.700000*%
%TD*%
%TA.AperFunction,ComponentPad*%
%ADD12RotRect,1.700000X1.700000X22.000000*%
%TD*%
%TA.AperFunction,ComponentPad*%
%ADD13HorizOval,1.700000X0.000000X0.000000X0.000000X0.000000X0*%
%TD*%
%TA.AperFunction,ComponentPad*%
%ADD14C,2.533000*%
%TD*%
%TA.AperFunction,ViaPad*%
%ADD15C,0.800000*%
%TD*%
%TA.AperFunction,Conductor*%
%ADD16C,0.250000*%
%TD*%
G04 APERTURE END LIST*
D10*
%TO.P,J2,1,Pin_1*%
%TO.N,Net-(J2-Pad1)*%
X150088600Y-100406200D03*
D11*
%TO.P,J2,2,Pin_2*%
%TO.N,VDD*%
X150088600Y-102946200D03*
%TO.P,J2,3,Pin_3*%
%TO.N,GND*%
X150088600Y-105486200D03*
%TD*%
D12*
%TO.P,J1,1,Pin_1*%
%TO.N,VDD*%
X134971959Y-103536485D03*
D13*
%TO.P,J1,2,Pin_2*%
X137327006Y-102584984D03*
%TO.P,J1,3,Pin_3*%
%TO.N,Net-(RV1-Pad3)*%
X135923460Y-105891532D03*
%TO.P,J1,4,Pin_4*%
%TO.N,Net-(J1-Pad4)*%
X138278507Y-104940031D03*
%TO.P,J1,5,Pin_5*%
%TO.N,GND*%
X136874960Y-108246579D03*
%TO.P,J1,6,Pin_6*%
X139230007Y-107295078D03*
%TD*%
D14*
%TO.P,RV1,1,1*%
%TO.N,Net-(J1-Pad4)*%
X146158600Y-99967400D03*
%TO.P,RV1,2,2*%
%TO.N,Net-(C1-Pad1)*%
X142976600Y-107649400D03*
%TO.P,RV1,3,3*%
%TO.N,Net-(RV1-Pad3)*%
X139794600Y-99967400D03*
%TD*%
D15*
%TO.N,Net-(C1-Pad1)*%
X147000000Y-104100000D03*
%TO.N,GND*%
X145824500Y-104100000D03*
X150600000Y-108400000D03*
%TD*%
D16*
%TO.N,Net-(C1-Pad1)*%
X143450600Y-107649400D02*
X142976600Y-107649400D01*
X147000000Y-104100000D02*
X143450600Y-107649400D01*
%TO.N,Net-(J1-Pad4)*%
X138278507Y-104940031D02*
X141185969Y-104940031D01*
X141185969Y-104940031D02*
X146158600Y-99967400D01*
%TO.N,Net-(RV1-Pad3)*%
X137934969Y-103765031D02*
X139794600Y-101905400D01*
X139794600Y-101905400D02*
X139794600Y-99967400D01*
X137663388Y-103765031D02*
X137934969Y-103765031D01*
X135923460Y-105504959D02*
X137663388Y-103765031D01*
X135923460Y-105891532D02*
X135923460Y-105504959D01*
%TD*%
%TA.AperFunction,Conductor*%
%TO.N,GND*%
G36*
X143434749Y-92567931D02*
G01*
X143442408Y-92568264D01*
X143761154Y-92591951D01*
X144079885Y-92615637D01*
X144087538Y-92616442D01*
X144720886Y-92702637D01*
X144728476Y-92703907D01*
X145186345Y-92794982D01*
X145355393Y-92828608D01*
X145362884Y-92830337D01*
X145671959Y-92911710D01*
X145981030Y-92993082D01*
X145988409Y-92995268D01*
X146595452Y-93195441D01*
X146602683Y-93198073D01*
X147196376Y-93434932D01*
X147203434Y-93438001D01*
X147781548Y-93710657D01*
X147788405Y-93714150D01*
X148348826Y-94021608D01*
X148355456Y-94025514D01*
X148896043Y-94366599D01*
X148902423Y-94370903D01*
X149421169Y-94744346D01*
X149427275Y-94749031D01*
X149922260Y-95153451D01*
X149928068Y-95158499D01*
X150397453Y-95592395D01*
X150402942Y-95597789D01*
X150844960Y-96059526D01*
X150850109Y-96065245D01*
X151263106Y-96553097D01*
X151267897Y-96559120D01*
X151650347Y-97071282D01*
X151654758Y-97077581D01*
X151853593Y-97380856D01*
X152005229Y-97612139D01*
X152009250Y-97618701D01*
X152326428Y-98173649D01*
X152330039Y-98180439D01*
X152612763Y-98753746D01*
X152615939Y-98760717D01*
X152843048Y-99302309D01*
X152863129Y-99350197D01*
X152865884Y-99357375D01*
X153038270Y-99851013D01*
X153076624Y-99960841D01*
X153078937Y-99968178D01*
X153228213Y-100497467D01*
X153252442Y-100583378D01*
X153254303Y-100590840D01*
X153373202Y-101138456D01*
X153389925Y-101215479D01*
X153391327Y-101223039D01*
X153482376Y-101814587D01*
X153488570Y-101854831D01*
X153489506Y-101862459D01*
X153506131Y-102043388D01*
X153547992Y-102498967D01*
X153548462Y-102506648D01*
X153555247Y-102728722D01*
X153567953Y-103144570D01*
X153567991Y-103145820D01*
X153568007Y-103152966D01*
X153553678Y-103700150D01*
X153553288Y-103707286D01*
X153500335Y-104344553D01*
X153499464Y-104352199D01*
X153407744Y-104984779D01*
X153406408Y-104992358D01*
X153276238Y-105618176D01*
X153274441Y-105625659D01*
X153106315Y-106242338D01*
X153104065Y-106249698D01*
X152898600Y-106854976D01*
X152895905Y-106862184D01*
X152653874Y-107453789D01*
X152650744Y-107460819D01*
X152561302Y-107646251D01*
X152386445Y-108008768D01*
X152373050Y-108036538D01*
X152369496Y-108043364D01*
X152057166Y-108601069D01*
X152053203Y-108607665D01*
X151798978Y-109002905D01*
X151707414Y-109145257D01*
X151703055Y-109151599D01*
X151325090Y-109667077D01*
X151320352Y-109673141D01*
X150911631Y-110164575D01*
X150906533Y-110170338D01*
X150587433Y-110509551D01*
X150468559Y-110635917D01*
X150463117Y-110641359D01*
X149997539Y-111079332D01*
X149991775Y-111084431D01*
X149500341Y-111493152D01*
X149494277Y-111497890D01*
X148978799Y-111875855D01*
X148972461Y-111880211D01*
X148585112Y-112129362D01*
X148434866Y-112226003D01*
X148428269Y-112229966D01*
X147870564Y-112542296D01*
X147863746Y-112545846D01*
X147791982Y-112580461D01*
X147288019Y-112823544D01*
X147280989Y-112826674D01*
X146689384Y-113068705D01*
X146682176Y-113071400D01*
X146076898Y-113276865D01*
X146069538Y-113279115D01*
X145452859Y-113447241D01*
X145445376Y-113449038D01*
X144819558Y-113579208D01*
X144811979Y-113580544D01*
X144179399Y-113672264D01*
X144171753Y-113673135D01*
X143534753Y-113726066D01*
X143527074Y-113726469D01*
X142888023Y-113740413D01*
X142880330Y-113740346D01*
X142516878Y-113726066D01*
X142241618Y-113715251D01*
X142233941Y-113714714D01*
X142188175Y-113710106D01*
X141597957Y-113650673D01*
X141590354Y-113649673D01*
X140959438Y-113546921D01*
X140951882Y-113545452D01*
X140881100Y-113529436D01*
X140328437Y-113404382D01*
X140321021Y-113402464D01*
X139707339Y-113223591D01*
X139700021Y-113221213D01*
X139098437Y-113005223D01*
X139091276Y-113002403D01*
X138503963Y-112750073D01*
X138497000Y-112746826D01*
X137926215Y-112459126D01*
X137919455Y-112455455D01*
X137367285Y-112133440D01*
X137360770Y-112129369D01*
X136829279Y-111774239D01*
X136823018Y-111769773D01*
X136782604Y-111739041D01*
X136314220Y-111382873D01*
X136308240Y-111378031D01*
X135824005Y-110960788D01*
X135818331Y-110955589D01*
X135360461Y-110509551D01*
X135355116Y-110504015D01*
X134925348Y-110030878D01*
X134920350Y-110025026D01*
X134520267Y-109526533D01*
X134515635Y-109520387D01*
X134381475Y-109330555D01*
X134146715Y-108998378D01*
X134142486Y-108991990D01*
X134137316Y-108983635D01*
X135738958Y-108983635D01*
X135742681Y-108998056D01*
X135772652Y-109046965D01*
X135778737Y-109055278D01*
X135918173Y-109216246D01*
X135925540Y-109223462D01*
X136089394Y-109359495D01*
X136097841Y-109365410D01*
X136281716Y-109472858D01*
X136291002Y-109477308D01*
X136489961Y-109553282D01*
X136499859Y-109556158D01*
X136708555Y-109598617D01*
X136718783Y-109599836D01*
X136931610Y-109607641D01*
X136941896Y-109607174D01*
X137122483Y-109584041D01*
X137135398Y-109578381D01*
X137135534Y-109569568D01*
X136741391Y-108594030D01*
X136731534Y-108581577D01*
X136729792Y-108580980D01*
X136722046Y-108582308D01*
X135749625Y-108975192D01*
X135738958Y-108983635D01*
X134137316Y-108983635D01*
X133806112Y-108448414D01*
X133802270Y-108441758D01*
X133499727Y-107878699D01*
X133496293Y-107871812D01*
X133493764Y-107866325D01*
X133405597Y-107675078D01*
X133228685Y-107291325D01*
X133225678Y-107284241D01*
X133061549Y-106862184D01*
X132994004Y-106688493D01*
X132991440Y-106681252D01*
X132973979Y-106626701D01*
X132796569Y-106072474D01*
X132794448Y-106065076D01*
X132637110Y-105445557D01*
X132635444Y-105438044D01*
X132631286Y-105416142D01*
X132516215Y-104810047D01*
X132515013Y-104802459D01*
X132494582Y-104641852D01*
X132457733Y-104352199D01*
X132434346Y-104168359D01*
X132433609Y-104160699D01*
X132404902Y-103722721D01*
X132391804Y-103522879D01*
X132391535Y-103515195D01*
X132391266Y-103453404D01*
X132390123Y-103191500D01*
X132389317Y-103006857D01*
X133355217Y-103006857D01*
X133358902Y-103152468D01*
X133375933Y-103212653D01*
X134048827Y-104878123D01*
X134078384Y-104933247D01*
X134083730Y-104939071D01*
X134170812Y-105033938D01*
X134170815Y-105033940D01*
X134176883Y-105040551D01*
X134184565Y-105045194D01*
X134184566Y-105045195D01*
X134195949Y-105052075D01*
X134301539Y-105115897D01*
X134310212Y-105118197D01*
X134310213Y-105118197D01*
X134428433Y-105149542D01*
X134442331Y-105153227D01*
X134569290Y-105150014D01*
X134637895Y-105168287D01*
X134685731Y-105220749D01*
X134697609Y-105290745D01*
X134686766Y-105329024D01*
X134651266Y-105405503D01*
X134644148Y-105420837D01*
X134584449Y-105636102D01*
X134560711Y-105858227D01*
X134561008Y-105863380D01*
X134561008Y-105863383D01*
X134572303Y-106059273D01*
X134573570Y-106081247D01*
X134574707Y-106086293D01*
X134574708Y-106086299D01*
X134583799Y-106126636D01*
X134622682Y-106299171D01*
X134706726Y-106506148D01*
X134709425Y-106510552D01*
X134818475Y-106688506D01*
X134823447Y-106696620D01*
X134969710Y-106865470D01*
X135141586Y-107008164D01*
X135334460Y-107120870D01*
X135543152Y-107200562D01*
X135632366Y-107218713D01*
X135709789Y-107234465D01*
X135772555Y-107267646D01*
X135807417Y-107329494D01*
X135803308Y-107400371D01*
X135788757Y-107428939D01*
X135693058Y-107569228D01*
X135687960Y-107578202D01*
X135598298Y-107771362D01*
X135594735Y-107781049D01*
X135537824Y-107986260D01*
X135535893Y-107996379D01*
X135513262Y-108208153D01*
X135513010Y-108218442D01*
X135525269Y-108431056D01*
X135526705Y-108441276D01*
X135538438Y-108493339D01*
X135545084Y-108505296D01*
X135559802Y-108503989D01*
X135837611Y-108391747D01*
X137209361Y-108391747D01*
X137210689Y-108399493D01*
X137604034Y-109373055D01*
X137612786Y-109384112D01*
X137622066Y-109381830D01*
X137750288Y-109290371D01*
X137758160Y-109283718D01*
X137909012Y-109133391D01*
X137915690Y-109125544D01*
X138039963Y-108952599D01*
X138045273Y-108943762D01*
X138139630Y-108752846D01*
X138143429Y-108743251D01*
X138205336Y-108539494D01*
X138207515Y-108529413D01*
X138215477Y-108468935D01*
X138244199Y-108404008D01*
X138303464Y-108364916D01*
X138374456Y-108364071D01*
X138420884Y-108388437D01*
X138444441Y-108407995D01*
X138452888Y-108413909D01*
X138636763Y-108521357D01*
X138646049Y-108525807D01*
X138845008Y-108601781D01*
X138854906Y-108604657D01*
X139063602Y-108647116D01*
X139073830Y-108648335D01*
X139286657Y-108656140D01*
X139296943Y-108655673D01*
X139477530Y-108632540D01*
X139490445Y-108626880D01*
X139490581Y-108618067D01*
X139096438Y-107642529D01*
X139086581Y-107630076D01*
X139084839Y-107629479D01*
X139077093Y-107630807D01*
X138266313Y-107958384D01*
X137222411Y-108380148D01*
X137209958Y-108390005D01*
X137209361Y-108391747D01*
X135837611Y-108391747D01*
X136544305Y-108106224D01*
X137838654Y-107583273D01*
X138192658Y-107440246D01*
X139564408Y-107440246D01*
X139565736Y-107447992D01*
X139959081Y-108421554D01*
X139967833Y-108432611D01*
X139977113Y-108430329D01*
X140105335Y-108338870D01*
X140113207Y-108332217D01*
X140264059Y-108181890D01*
X140270737Y-108174043D01*
X140395010Y-108001098D01*
X140400320Y-107992261D01*
X140494677Y-107801345D01*
X140498476Y-107791750D01*
X140555882Y-107602806D01*
X141197233Y-107602806D01*
X141209891Y-107866325D01*
X141234941Y-107992261D01*
X141257610Y-108106224D01*
X141261360Y-108125078D01*
X141262939Y-108129476D01*
X141262941Y-108129483D01*
X141335730Y-108332217D01*
X141350510Y-108373382D01*
X141475383Y-108605781D01*
X141633234Y-108817170D01*
X141636543Y-108820450D01*
X141636548Y-108820456D01*
X141792641Y-108975192D01*
X141820597Y-109002905D01*
X141824359Y-109005663D01*
X141824362Y-109005666D01*
X141880687Y-109046965D01*
X142033356Y-109158906D01*
X142037491Y-109161082D01*
X142037495Y-109161084D01*
X142160495Y-109225797D01*
X142266836Y-109281746D01*
X142415300Y-109333592D01*
X142489475Y-109359495D01*
X142515908Y-109368726D01*
X142520501Y-109369598D01*
X142770512Y-109417064D01*
X142770515Y-109417064D01*
X142775101Y-109417935D01*
X142906911Y-109423114D01*
X143034052Y-109428110D01*
X143034058Y-109428110D01*
X143038720Y-109428293D01*
X143141250Y-109417064D01*
X143296322Y-109400081D01*
X143296327Y-109400080D01*
X143300975Y-109399571D01*
X143305499Y-109398380D01*
X143551581Y-109333592D01*
X143551583Y-109333591D01*
X143556104Y-109332401D01*
X143653932Y-109290371D01*
X143794208Y-109230104D01*
X143794210Y-109230103D01*
X143798502Y-109228259D01*
X143910575Y-109158906D01*
X144018871Y-109091891D01*
X144018875Y-109091888D01*
X144022844Y-109089432D01*
X144224202Y-108918969D01*
X144369889Y-108752846D01*
X144395071Y-108724132D01*
X144395075Y-108724127D01*
X144398153Y-108720617D01*
X144540874Y-108498732D01*
X144649231Y-108258188D01*
X144720843Y-108004270D01*
X144749241Y-107781049D01*
X144753740Y-107745687D01*
X144753740Y-107745683D01*
X144754138Y-107742557D01*
X144756577Y-107649400D01*
X144742040Y-107453789D01*
X144737371Y-107390955D01*
X144737370Y-107390951D01*
X144737025Y-107386303D01*
X144732881Y-107367987D01*
X144728847Y-107350162D01*
X144733322Y-107279307D01*
X144762645Y-107233259D01*
X146241738Y-105754166D01*
X148756857Y-105754166D01*
X148787165Y-105888646D01*
X148790245Y-105898475D01*
X148870370Y-106095803D01*
X148875013Y-106104994D01*
X148986294Y-106286588D01*
X148992377Y-106294899D01*
X149131813Y-106455867D01*
X149139180Y-106463083D01*
X149303034Y-106599116D01*
X149311481Y-106605031D01*
X149495356Y-106712479D01*
X149504642Y-106716929D01*
X149703601Y-106792903D01*
X149713499Y-106795779D01*
X149816850Y-106816806D01*
X149830899Y-106815610D01*
X149834600Y-106805265D01*
X149834600Y-106804717D01*
X150342600Y-106804717D01*
X150346664Y-106818559D01*
X150360078Y-106820593D01*
X150366784Y-106819734D01*
X150376862Y-106817592D01*
X150580855Y-106756391D01*
X150590442Y-106752633D01*
X150781695Y-106658939D01*
X150790545Y-106653664D01*
X150963928Y-106529992D01*
X150971800Y-106523339D01*
X151122652Y-106373012D01*
X151129330Y-106365165D01*
X151253603Y-106192220D01*
X151258913Y-106183383D01*
X151353270Y-105992467D01*
X151357069Y-105982872D01*
X151418977Y-105779110D01*
X151421155Y-105769037D01*
X151422586Y-105758162D01*
X151420375Y-105743978D01*
X151407217Y-105740200D01*
X150360715Y-105740200D01*
X150345476Y-105744675D01*
X150344271Y-105746065D01*
X150342600Y-105753748D01*
X150342600Y-106804717D01*
X149834600Y-106804717D01*
X149834600Y-105758315D01*
X149830125Y-105743076D01*
X149828735Y-105741871D01*
X149821052Y-105740200D01*
X148771825Y-105740200D01*
X148758294Y-105744173D01*
X148756857Y-105754166D01*
X146241738Y-105754166D01*
X146950499Y-105045405D01*
X147012811Y-105011379D01*
X147039594Y-105008500D01*
X147095487Y-105008500D01*
X147101939Y-105007128D01*
X147101944Y-105007128D01*
X147189132Y-104988595D01*
X147282288Y-104968794D01*
X147288319Y-104966109D01*
X147450722Y-104893803D01*
X147450724Y-104893802D01*
X147456752Y-104891118D01*
X147478992Y-104874960D01*
X147529946Y-104837939D01*
X147611253Y-104778866D01*
X147739040Y-104636944D01*
X147834527Y-104471556D01*
X147893542Y-104289928D01*
X147900115Y-104227395D01*
X147912814Y-104106565D01*
X147913504Y-104100000D01*
X147897406Y-103946832D01*
X147894232Y-103916635D01*
X147894232Y-103916633D01*
X147893542Y-103910072D01*
X147834527Y-103728444D01*
X147822312Y-103707286D01*
X147768093Y-103613377D01*
X147739040Y-103563056D01*
X147611253Y-103421134D01*
X147456752Y-103308882D01*
X147450724Y-103306198D01*
X147450722Y-103306197D01*
X147288319Y-103233891D01*
X147288318Y-103233891D01*
X147282288Y-103231206D01*
X147179516Y-103209361D01*
X147101944Y-103192872D01*
X147101939Y-103192872D01*
X147095487Y-103191500D01*
X146904513Y-103191500D01*
X146898061Y-103192872D01*
X146898056Y-103192872D01*
X146820484Y-103209361D01*
X146717712Y-103231206D01*
X146711682Y-103233891D01*
X146711681Y-103233891D01*
X146549278Y-103306197D01*
X146549276Y-103306198D01*
X146543248Y-103308882D01*
X146388747Y-103421134D01*
X146260960Y-103563056D01*
X146231907Y-103613377D01*
X146177689Y-103707286D01*
X146165473Y-103728444D01*
X146106458Y-103910072D01*
X146105768Y-103916633D01*
X146105768Y-103916635D01*
X146102594Y-103946832D01*
X146090403Y-104062832D01*
X146089093Y-104075293D01*
X146062080Y-104140950D01*
X146052878Y-104151218D01*
X144077460Y-106126636D01*
X144015148Y-106160662D01*
X143944333Y-106155597D01*
X143916552Y-106141072D01*
X143880007Y-106115720D01*
X143840822Y-106096396D01*
X143647579Y-106001099D01*
X143647576Y-106001098D01*
X143643391Y-105999034D01*
X143573695Y-105976724D01*
X143543318Y-105967000D01*
X143392127Y-105918604D01*
X143387520Y-105917854D01*
X143387517Y-105917853D01*
X143136346Y-105876947D01*
X143136347Y-105876947D01*
X143131735Y-105876196D01*
X143003747Y-105874521D01*
X142872612Y-105872804D01*
X142872609Y-105872804D01*
X142867935Y-105872743D01*
X142606522Y-105908320D01*
X142602036Y-105909628D01*
X142602034Y-105909628D01*
X142571239Y-105918604D01*
X142353239Y-105982145D01*
X142113650Y-106092597D01*
X142085692Y-106110927D01*
X141896932Y-106234683D01*
X141896927Y-106234687D01*
X141893019Y-106237249D01*
X141818279Y-106303957D01*
X141712930Y-106397985D01*
X141696192Y-106412924D01*
X141527493Y-106615762D01*
X141471602Y-106707868D01*
X141397765Y-106829548D01*
X141390629Y-106841307D01*
X141288606Y-107084605D01*
X141223665Y-107340310D01*
X141197233Y-107602806D01*
X140555882Y-107602806D01*
X140560383Y-107587993D01*
X140562562Y-107577912D01*
X140590597Y-107364965D01*
X140591116Y-107358290D01*
X140592579Y-107298442D01*
X140592385Y-107291724D01*
X140574787Y-107077672D01*
X140573105Y-107067510D01*
X140568140Y-107047740D01*
X140560936Y-107035494D01*
X140547075Y-107036896D01*
X139577458Y-107428647D01*
X139565005Y-107438504D01*
X139564408Y-107440246D01*
X138192658Y-107440246D01*
X138899352Y-107154723D01*
X140355027Y-106566592D01*
X140365269Y-106558485D01*
X140361153Y-106543313D01*
X140312434Y-106468004D01*
X140306143Y-106459835D01*
X140162813Y-106302318D01*
X140155280Y-106295293D01*
X139988146Y-106163300D01*
X139979559Y-106157595D01*
X139793124Y-106054677D01*
X139783712Y-106050447D01*
X139582966Y-105979358D01*
X139572995Y-105976724D01*
X139445084Y-105953940D01*
X139381527Y-105922302D01*
X139345163Y-105861325D01*
X139347540Y-105790368D01*
X139364857Y-105756367D01*
X139443942Y-105646308D01*
X139446960Y-105642108D01*
X139449253Y-105637468D01*
X139450953Y-105634639D01*
X139503181Y-105586549D01*
X139558958Y-105573531D01*
X141107202Y-105573531D01*
X141118385Y-105574058D01*
X141125878Y-105575733D01*
X141133804Y-105575484D01*
X141133805Y-105575484D01*
X141193955Y-105573593D01*
X141197914Y-105573531D01*
X141225825Y-105573531D01*
X141229760Y-105573034D01*
X141229825Y-105573026D01*
X141241662Y-105572093D01*
X141273920Y-105571079D01*
X141277939Y-105570953D01*
X141285858Y-105570704D01*
X141305312Y-105565052D01*
X141324669Y-105561044D01*
X141336899Y-105559499D01*
X141336900Y-105559499D01*
X141344766Y-105558505D01*
X141352137Y-105555586D01*
X141352139Y-105555586D01*
X141385881Y-105542227D01*
X141397111Y-105538382D01*
X141431952Y-105528260D01*
X141431953Y-105528260D01*
X141439562Y-105526049D01*
X141446381Y-105522016D01*
X141446386Y-105522014D01*
X141456997Y-105515738D01*
X141474745Y-105507043D01*
X141493586Y-105499583D01*
X141529356Y-105473595D01*
X141539276Y-105467079D01*
X141570504Y-105448611D01*
X141570507Y-105448609D01*
X141577331Y-105444573D01*
X141591652Y-105430252D01*
X141606686Y-105417411D01*
X141616663Y-105410162D01*
X141623076Y-105405503D01*
X141651267Y-105371426D01*
X141659257Y-105362647D01*
X144109009Y-102912895D01*
X148725851Y-102912895D01*
X148726148Y-102918048D01*
X148726148Y-102918051D01*
X148731611Y-103012790D01*
X148738710Y-103135915D01*
X148739847Y-103140961D01*
X148739848Y-103140967D01*
X148756004Y-103212653D01*
X148787822Y-103353839D01*
X148871866Y-103560816D01*
X148874565Y-103565220D01*
X148978440Y-103734729D01*
X148988587Y-103751288D01*
X149134850Y-103920138D01*
X149306726Y-104062832D01*
X149328051Y-104075293D01*
X149380555Y-104105974D01*
X149429279Y-104157612D01*
X149442350Y-104227395D01*
X149415619Y-104293167D01*
X149375162Y-104326527D01*
X149367057Y-104330746D01*
X149358338Y-104336236D01*
X149188033Y-104464105D01*
X149180326Y-104470948D01*
X149033190Y-104624917D01*
X149026704Y-104632927D01*
X148906698Y-104808849D01*
X148901600Y-104817823D01*
X148811938Y-105010983D01*
X148808375Y-105020670D01*
X148752989Y-105220383D01*
X148754512Y-105228807D01*
X148766892Y-105232200D01*
X151406944Y-105232200D01*
X151420475Y-105228227D01*
X151421780Y-105219147D01*
X151379814Y-105052075D01*
X151376494Y-105042324D01*
X151291572Y-104847014D01*
X151286705Y-104837939D01*
X151171026Y-104659126D01*
X151164736Y-104650957D01*
X151021406Y-104493440D01*
X151013873Y-104486415D01*
X150846739Y-104354422D01*
X150838156Y-104348720D01*
X150801202Y-104328320D01*
X150751231Y-104277887D01*
X150736459Y-104208445D01*
X150761575Y-104142039D01*
X150788927Y-104115432D01*
X150845200Y-104075293D01*
X150968460Y-103987373D01*
X151126696Y-103829689D01*
X151142403Y-103807831D01*
X151254035Y-103652477D01*
X151257053Y-103648277D01*
X151320927Y-103519038D01*
X151353736Y-103452653D01*
X151353737Y-103452651D01*
X151356030Y-103448011D01*
X151420970Y-103234269D01*
X151450129Y-103012790D01*
X151451756Y-102946200D01*
X151433452Y-102723561D01*
X151379031Y-102506902D01*
X151289954Y-102302040D01*
X151209989Y-102178433D01*
X151171422Y-102118817D01*
X151171420Y-102118814D01*
X151168614Y-102114477D01*
X151157379Y-102102130D01*
X151021398Y-101952688D01*
X150990346Y-101888842D01*
X150998741Y-101818343D01*
X151043917Y-101763575D01*
X151070361Y-101749906D01*
X151171214Y-101712097D01*
X151185305Y-101706815D01*
X151301861Y-101619461D01*
X151389215Y-101502905D01*
X151440345Y-101366516D01*
X151447100Y-101304334D01*
X151447100Y-99508066D01*
X151440345Y-99445884D01*
X151389215Y-99309495D01*
X151301861Y-99192939D01*
X151185305Y-99105585D01*
X151048916Y-99054455D01*
X150986734Y-99047700D01*
X149190466Y-99047700D01*
X149128284Y-99054455D01*
X148991895Y-99105585D01*
X148875339Y-99192939D01*
X148787985Y-99309495D01*
X148736855Y-99445884D01*
X148730100Y-99508066D01*
X148730100Y-101304334D01*
X148736855Y-101366516D01*
X148787985Y-101502905D01*
X148875339Y-101619461D01*
X148991895Y-101706815D01*
X149000304Y-101709967D01*
X149000305Y-101709968D01*
X149109051Y-101750735D01*
X149165816Y-101793376D01*
X149190516Y-101859938D01*
X149175309Y-101929287D01*
X149155916Y-101955768D01*
X149029229Y-102088338D01*
X149026315Y-102092610D01*
X149026314Y-102092611D01*
X148956573Y-102194847D01*
X148903343Y-102272880D01*
X148809288Y-102475505D01*
X148749589Y-102690770D01*
X148725851Y-102912895D01*
X144109009Y-102912895D01*
X145373119Y-101648785D01*
X145435431Y-101614759D01*
X145503755Y-101618925D01*
X145693492Y-101685184D01*
X145697908Y-101686726D01*
X145702501Y-101687598D01*
X145952512Y-101735064D01*
X145952515Y-101735064D01*
X145957101Y-101735935D01*
X146088910Y-101741114D01*
X146216052Y-101746110D01*
X146216058Y-101746110D01*
X146220720Y-101746293D01*
X146323250Y-101735064D01*
X146478322Y-101718081D01*
X146478327Y-101718080D01*
X146482975Y-101717571D01*
X146523829Y-101706815D01*
X146733581Y-101651592D01*
X146733583Y-101651591D01*
X146738104Y-101650401D01*
X146794017Y-101626379D01*
X146976208Y-101548104D01*
X146976210Y-101548103D01*
X146980502Y-101546259D01*
X147092575Y-101476906D01*
X147200871Y-101409891D01*
X147200875Y-101409888D01*
X147204844Y-101407432D01*
X147406202Y-101236969D01*
X147429651Y-101210231D01*
X147577071Y-101042132D01*
X147577075Y-101042127D01*
X147580153Y-101038617D01*
X147722874Y-100816732D01*
X147831231Y-100576188D01*
X147902843Y-100322270D01*
X147936138Y-100060557D01*
X147938577Y-99967400D01*
X147919025Y-99704303D01*
X147860800Y-99446985D01*
X147841864Y-99398291D01*
X147766874Y-99205453D01*
X147766873Y-99205451D01*
X147765181Y-99201100D01*
X147743760Y-99163621D01*
X147636587Y-98976106D01*
X147636585Y-98976104D01*
X147634268Y-98972049D01*
X147470937Y-98764865D01*
X147278776Y-98584098D01*
X147062007Y-98433720D01*
X147057816Y-98431653D01*
X146829579Y-98319099D01*
X146829576Y-98319098D01*
X146825391Y-98317034D01*
X146574127Y-98236604D01*
X146569520Y-98235854D01*
X146569517Y-98235853D01*
X146318346Y-98194947D01*
X146318347Y-98194947D01*
X146313735Y-98194196D01*
X146185747Y-98192521D01*
X146054612Y-98190804D01*
X146054609Y-98190804D01*
X146049935Y-98190743D01*
X145788522Y-98226320D01*
X145784036Y-98227628D01*
X145784034Y-98227628D01*
X145753239Y-98236604D01*
X145535239Y-98300145D01*
X145295650Y-98410597D01*
X145291741Y-98413160D01*
X145078932Y-98552683D01*
X145078927Y-98552687D01*
X145075019Y-98555249D01*
X144878192Y-98730924D01*
X144709493Y-98933762D01*
X144572629Y-99159307D01*
X144470606Y-99402605D01*
X144405665Y-99658310D01*
X144379233Y-99920806D01*
X144379457Y-99925472D01*
X144379457Y-99925477D01*
X144381623Y-99970560D01*
X144391891Y-100184325D01*
X144443360Y-100443078D01*
X144507155Y-100620763D01*
X144511349Y-100691633D01*
X144477662Y-100752433D01*
X140960469Y-104269626D01*
X140898157Y-104303652D01*
X140871374Y-104306531D01*
X139555312Y-104306531D01*
X139487191Y-104286529D01*
X139449520Y-104248971D01*
X139361329Y-104112648D01*
X139361327Y-104112645D01*
X139358521Y-104108308D01*
X139208177Y-103943082D01*
X139204126Y-103939883D01*
X139204122Y-103939879D01*
X139036921Y-103807831D01*
X139036917Y-103807829D01*
X139032866Y-103804629D01*
X139028342Y-103802132D01*
X139028338Y-103802129D01*
X139023858Y-103799656D01*
X138973885Y-103749225D01*
X138959111Y-103679783D01*
X138984226Y-103613377D01*
X138995653Y-103600251D01*
X140186847Y-102409057D01*
X140195137Y-102401513D01*
X140201618Y-102397400D01*
X140248259Y-102347732D01*
X140251013Y-102344891D01*
X140270734Y-102325170D01*
X140273212Y-102321975D01*
X140280918Y-102312953D01*
X140305758Y-102286501D01*
X140311186Y-102280721D01*
X140320946Y-102262968D01*
X140331799Y-102246445D01*
X140339353Y-102236706D01*
X140344213Y-102230441D01*
X140361776Y-102189857D01*
X140366983Y-102179227D01*
X140388295Y-102140460D01*
X140390266Y-102132783D01*
X140390268Y-102132778D01*
X140393332Y-102120842D01*
X140399738Y-102102130D01*
X140404634Y-102090817D01*
X140407781Y-102083545D01*
X140409555Y-102072349D01*
X140414697Y-102039881D01*
X140417104Y-102028260D01*
X140426128Y-101993111D01*
X140426128Y-101993110D01*
X140428100Y-101985430D01*
X140428100Y-101965169D01*
X140429651Y-101945458D01*
X140431579Y-101933285D01*
X140432819Y-101925457D01*
X140428659Y-101881446D01*
X140428100Y-101869589D01*
X140428100Y-101710206D01*
X140448102Y-101642085D01*
X140504362Y-101594438D01*
X140510377Y-101591854D01*
X140616502Y-101546259D01*
X140728575Y-101476906D01*
X140836871Y-101409891D01*
X140836875Y-101409888D01*
X140840844Y-101407432D01*
X141042202Y-101236969D01*
X141065651Y-101210231D01*
X141213071Y-101042132D01*
X141213075Y-101042127D01*
X141216153Y-101038617D01*
X141358874Y-100816732D01*
X141467231Y-100576188D01*
X141538843Y-100322270D01*
X141572138Y-100060557D01*
X141574577Y-99967400D01*
X141555025Y-99704303D01*
X141496800Y-99446985D01*
X141477864Y-99398291D01*
X141402874Y-99205453D01*
X141402873Y-99205451D01*
X141401181Y-99201100D01*
X141379760Y-99163621D01*
X141272587Y-98976106D01*
X141272585Y-98976104D01*
X141270268Y-98972049D01*
X141106937Y-98764865D01*
X140914776Y-98584098D01*
X140698007Y-98433720D01*
X140693816Y-98431653D01*
X140465579Y-98319099D01*
X140465576Y-98319098D01*
X140461391Y-98317034D01*
X140210127Y-98236604D01*
X140205520Y-98235854D01*
X140205517Y-98235853D01*
X139954346Y-98194947D01*
X139954347Y-98194947D01*
X139949735Y-98194196D01*
X139821747Y-98192521D01*
X139690612Y-98190804D01*
X139690609Y-98190804D01*
X139685935Y-98190743D01*
X139424522Y-98226320D01*
X139420036Y-98227628D01*
X139420034Y-98227628D01*
X139389239Y-98236604D01*
X139171239Y-98300145D01*
X138931650Y-98410597D01*
X138927741Y-98413160D01*
X138714932Y-98552683D01*
X138714927Y-98552687D01*
X138711019Y-98555249D01*
X138514192Y-98730924D01*
X138345493Y-98933762D01*
X138208629Y-99159307D01*
X138106606Y-99402605D01*
X138041665Y-99658310D01*
X138015233Y-99920806D01*
X138015457Y-99925472D01*
X138015457Y-99925477D01*
X138017623Y-99970560D01*
X138027891Y-100184325D01*
X138079360Y-100443078D01*
X138080939Y-100447476D01*
X138080941Y-100447483D01*
X138131063Y-100587084D01*
X138168510Y-100691382D01*
X138293383Y-100923781D01*
X138296178Y-100927525D01*
X138296180Y-100927527D01*
X138368658Y-101024587D01*
X138451234Y-101135170D01*
X138454543Y-101138450D01*
X138454548Y-101138456D01*
X138635280Y-101317617D01*
X138638597Y-101320905D01*
X138642359Y-101323663D01*
X138642362Y-101323666D01*
X138847585Y-101474141D01*
X138851356Y-101476906D01*
X138855491Y-101479082D01*
X138855495Y-101479084D01*
X139011764Y-101561301D01*
X139062736Y-101610720D01*
X139078899Y-101679853D01*
X139055120Y-101746749D01*
X139042191Y-101761904D01*
X138760707Y-102043388D01*
X138698395Y-102077414D01*
X138627580Y-102072349D01*
X138570744Y-102029802D01*
X138556063Y-102004536D01*
X138544308Y-101977501D01*
X138528360Y-101940824D01*
X138477671Y-101862470D01*
X138409828Y-101757601D01*
X138409826Y-101757598D01*
X138407020Y-101753261D01*
X138256676Y-101588035D01*
X138252625Y-101584836D01*
X138252621Y-101584832D01*
X138085420Y-101452784D01*
X138085416Y-101452782D01*
X138081365Y-101449582D01*
X137885795Y-101341622D01*
X137880926Y-101339898D01*
X137880922Y-101339896D01*
X137680093Y-101268779D01*
X137680089Y-101268778D01*
X137675218Y-101267053D01*
X137670125Y-101266146D01*
X137670122Y-101266145D01*
X137460379Y-101228784D01*
X137460373Y-101228783D01*
X137455290Y-101227878D01*
X137381458Y-101226976D01*
X137237087Y-101225212D01*
X137237085Y-101225212D01*
X137231917Y-101225149D01*
X137011097Y-101258939D01*
X136798762Y-101328341D01*
X136600613Y-101431491D01*
X136596480Y-101434594D01*
X136596477Y-101434596D01*
X136427722Y-101561301D01*
X136421971Y-101565619D01*
X136267635Y-101727122D01*
X136141749Y-101911664D01*
X136058590Y-102090817D01*
X136058146Y-102091773D01*
X136011322Y-102145140D01*
X135943079Y-102164721D01*
X135875083Y-102144298D01*
X135851036Y-102123929D01*
X135773106Y-102039032D01*
X135773103Y-102039030D01*
X135767035Y-102032419D01*
X135642379Y-101957073D01*
X135633706Y-101954773D01*
X135633705Y-101954773D01*
X135510258Y-101922042D01*
X135501587Y-101919743D01*
X135458111Y-101920843D01*
X135363874Y-101923228D01*
X135363873Y-101923228D01*
X135355976Y-101923428D01*
X135295791Y-101940459D01*
X133630321Y-102613353D01*
X133627319Y-102614963D01*
X133627314Y-102614965D01*
X133598192Y-102630580D01*
X133575197Y-102642910D01*
X133569373Y-102648256D01*
X133474506Y-102735338D01*
X133474504Y-102735341D01*
X133467893Y-102741409D01*
X133463250Y-102749091D01*
X133463249Y-102749092D01*
X133397189Y-102858385D01*
X133392547Y-102866065D01*
X133390247Y-102874738D01*
X133390247Y-102874739D01*
X133357516Y-102998186D01*
X133355217Y-103006857D01*
X132389317Y-103006857D01*
X132388746Y-102875988D01*
X132388948Y-102868295D01*
X132424259Y-102246445D01*
X132425185Y-102230145D01*
X132425855Y-102222479D01*
X132500987Y-101587691D01*
X132502125Y-101580080D01*
X132615865Y-100951090D01*
X132617465Y-100943563D01*
X132769391Y-100322694D01*
X132771447Y-100315278D01*
X132961000Y-99704817D01*
X132963506Y-99697540D01*
X133189966Y-99099809D01*
X133192911Y-99092699D01*
X133433610Y-98558366D01*
X133455450Y-98509883D01*
X133458811Y-98502995D01*
X133756437Y-97937301D01*
X133760221Y-97930612D01*
X134091822Y-97384150D01*
X134096013Y-97377696D01*
X134306441Y-97074365D01*
X134460360Y-96852491D01*
X134464932Y-96846312D01*
X134860661Y-96344333D01*
X134865608Y-96338438D01*
X135291233Y-95861566D01*
X135296530Y-95855984D01*
X135750481Y-95405976D01*
X135756110Y-95400727D01*
X135934930Y-95243907D01*
X136236683Y-94979277D01*
X136242621Y-94974382D01*
X136748034Y-94583050D01*
X136754260Y-94578527D01*
X137282604Y-94218790D01*
X137289094Y-94214655D01*
X137838431Y-93887833D01*
X137845162Y-93884102D01*
X138413421Y-93591430D01*
X138420367Y-93588117D01*
X139005427Y-93330684D01*
X139012562Y-93327801D01*
X139119432Y-93288374D01*
X139612262Y-93106560D01*
X139619545Y-93104123D01*
X140231629Y-92919907D01*
X140239064Y-92917915D01*
X140339864Y-92894180D01*
X140861263Y-92771406D01*
X140868781Y-92769876D01*
X141260094Y-92702637D01*
X141498755Y-92661628D01*
X141506376Y-92660557D01*
X141723455Y-92636783D01*
X142141785Y-92590968D01*
X142149427Y-92590366D01*
X142787928Y-92559697D01*
X142795592Y-92559563D01*
X143434749Y-92567931D01*
G37*
%TD.AperFunction*%
%TD*%
M02*
